<svg width="500" height="500" viewBox="0 0 500 500" fill="none" xmlns="http://www.w3.org/2000/svg">
<g clip-path="url(#clip0_88_389)">
<path d="M500 500H0V0H250H500V500Z" fill="white"/>
<path d="M84.1478 191.367C78.4728 193.701 74.9328 199.596 73.6158 205.589C72.2988 211.582 72.8168 217.801 72.9818 223.934C73.1228 229.182 73.0128 234.524 74.4998 239.559C75.9878 244.593 79.4238 249.394 84.4378 250.951C90.0798 252.704 96.3748 249.855 100.202 245.354C104.029 240.854 105.836 235.002 107.159 229.244C108.526 223.293 109.481 217.157 108.81 211.088C108.14 205.019 105.7 198.972 101.157 194.891C96.6158 190.812 89.7958 189.045 84.1478 191.367Z" fill="#D1F4F5"/>
<path d="M154.6 83.8401C149.902 91.6671 149.241 101.778 152.88 110.15C156.519 118.522 164.364 124.935 173.292 126.839C183.17 128.945 193.746 125.589 201.587 119.224C208.489 113.622 213.575 105.536 214.59 96.7051C215.605 87.8741 212.185 78.4221 205.107 73.0451C199.362 68.6801 191.819 67.2661 184.612 67.6021C172.777 68.1531 160.698 73.6811 154.6 83.8401Z" fill="#D1F4F5"/>
<path d="M138.915 110.754C137.898 105.279 133.52 100.893 128.498 98.4871C123.136 95.9181 116.108 95.5161 111.748 99.5581C109.364 101.768 108.123 105.008 107.795 108.243C107.191 114.217 109.688 120.494 114.441 124.162C119.194 127.831 126.098 128.614 131.411 125.816C136.725 123.019 140.012 116.658 138.915 110.754Z" fill="#D1F4F5"/>
<path d="M365.164 98.4471C356.575 103.632 350.417 112.851 349.412 122.833C348.406 132.815 352.774 143.288 360.871 149.212C367.597 154.134 376.364 155.757 384.648 154.832C393.58 153.835 402.382 149.816 408.024 142.82C417.177 131.471 415.779 113.287 405.496 102.95C395.212 92.6141 377.646 90.9111 365.164 98.4471Z" fill="#D1F4F5"/>
<path d="M428.075 309.507C432.897 307.244 435.806 302.043 436.703 296.792C437.599 291.541 436.794 286.166 435.989 280.901C434.73 272.671 433.471 264.441 432.212 256.211C431.319 250.373 429.505 243.415 423.851 241.71C420.148 240.594 416.044 242.41 413.46 245.289C410.877 248.167 409.535 251.931 408.449 255.643C406.177 263.406 404.75 271.416 404.204 279.486C403.68 287.224 404.083 295.432 408.175 302.02C412.267 308.608 421.055 312.802 428.075 309.507Z" fill="#D1F4F5"/>
<path d="M95.9318 380.327C82.6058 371.961 75.2538 352.812 73.8068 337.145C72.3598 321.477 78.5858 305.281 90.1538 294.616C101.086 284.538 116.715 278.756 123.305 265.428C130.406 251.068 124.155 234.071 118.889 218.941C113.623 203.811 110.032 185.184 120.748 173.276C131.361 161.483 149.827 162.933 165.112 158.684C180.204 154.488 192.8 144.262 204.546 133.898C216.292 123.534 227.98 112.571 242.357 106.35C256.733 100.129 274.725 99.582 286.979 109.34C303.949 122.854 303.978 150.085 320.226 164.458C331.482 174.415 347.646 175.753 362.496 178.064C377.345 180.376 393.768 185.497 400.437 198.964C406.623 211.456 402.04 226.486 396.126 239.109C390.212 251.732 382.837 264.602 383.651 278.518C384.364 290.71 391.31 301.583 398.593 311.386C405.877 321.189 413.896 330.895 417.376 342.601C420.856 354.308 418.553 373.643 408.331 380.327H95.9318Z" fill="#D1F4F5"/>
<path d="M428.806 380.327H62.9028V395.04H428.806V380.327Z" fill="#DF8D6D"/>
<path d="M418.647 395.04H73.062V404.603H418.647V395.04Z" fill="#8C404C"/>
<path d="M418.647 404.603H73.062V419.691H418.647V404.603Z" fill="#A64F5A"/>
<path d="M128.846 157.842L86.1611 187.002L132.685 255.105L183.86 220.145L143.136 160.532L128.846 157.842Z" fill="#F5D896"/>
<path d="M134.646 166.332L143.136 160.532L128.846 157.842L134.646 166.332Z" fill="#F0BF6C"/>
<path d="M135.6 239.625L101.642 189.916L134.423 167.522L168.381 217.231L135.6 239.625ZM104.023 190.365L136.048 237.244L165.999 216.783L133.974 169.904L104.023 190.365Z" fill="#454F6B"/>
<path d="M144.806 228.249C134.495 228.249 123.455 222.186 116.429 211.553C111.965 204.798 110.25 196.868 111.723 189.796C112.846 184.405 115.805 179.916 120.053 177.157C128.262 171.827 140.294 175.595 146.878 185.559C149.78 189.951 150.894 195.111 149.934 199.717C149.198 203.248 147.257 206.19 144.469 208.002C139.077 211.505 131.182 209.054 126.875 202.536C124.973 199.658 124.243 196.27 124.874 193.242C125.362 190.901 126.652 188.948 128.506 187.744C132.098 185.411 137.341 187.019 140.192 191.331C141.454 193.241 141.937 195.494 141.517 197.512C141.188 199.091 140.315 200.41 139.059 201.227C136.617 202.812 133.071 201.743 131.155 198.843C130.302 197.552 129.977 196.025 130.262 194.654C130.49 193.562 131.096 192.648 131.97 192.081C132.366 191.823 132.897 191.935 133.155 192.333C133.413 192.73 133.3 193.261 132.903 193.518C132.278 193.923 132.034 194.549 131.94 195.003C131.747 195.93 131.982 196.985 132.585 197.898C133.984 200.015 136.47 200.863 138.126 199.789C139.009 199.216 139.601 198.308 139.84 197.162C140.167 195.588 139.775 193.807 138.763 192.275C136.43 188.744 132.247 187.357 129.441 189.181C127.952 190.148 126.953 191.673 126.553 193.591C126.015 196.175 126.653 199.09 128.306 201.591C132.096 207.326 138.929 209.557 143.536 206.564C145.974 204.981 147.606 202.493 148.257 199.368C149.124 195.206 148.101 190.517 145.448 186.504C139.381 177.323 128.406 173.773 120.986 178.595C117.067 181.139 114.444 185.134 113.4 190.146C112.019 196.774 113.644 204.232 117.858 210.609C127.483 225.174 144.927 230.78 156.746 223.105C157.143 222.849 157.673 222.96 157.931 223.357C158.189 223.754 158.076 224.284 157.679 224.542C153.807 227.057 149.378 228.249 144.806 228.249Z" fill="#A64F5A"/>
<path d="M175.784 143.685C176.806 146.057 174.727 149.232 171.141 150.776C167.555 152.32 163.82 151.649 162.799 149.276C161.778 146.904 163.856 143.729 167.442 142.185C171.027 140.641 174.762 141.313 175.784 143.685Z" fill="#56438C"/>
<path d="M157.36 135.757C156.326 136.202 155.849 137.401 156.294 138.435L160.718 148.709C161.303 150.067 165.377 149.618 169.818 147.706C174.259 145.794 177.385 143.142 176.8 141.784L172.376 131.51C171.931 130.476 170.732 129.999 169.698 130.444L157.36 135.757Z" fill="#6C6FC3"/>
<path d="M172.811 94.5471C167.42 82.0261 152.549 76.5051 140.198 82.7581C129.806 88.0191 124.716 100.349 128.398 111.4C131.355 120.275 138.859 126.102 147.278 127.435C151.404 128.088 154.905 130.812 156.557 134.649L157.789 137.51C158.258 138.599 161.522 138.239 165.081 136.706C168.64 135.173 171.144 133.049 170.676 131.961L169.446 129.105C167.767 125.205 168.315 120.766 170.686 117.243C175.052 110.759 176.132 102.259 172.811 94.5471Z" fill="#F0BF6C"/>
<path d="M136.23 115.974C135.49 116.293 134.604 116.052 134.135 115.36C133.083 113.807 132.247 112.109 131.65 110.316C129.283 103.213 131.163 95.126 136.438 89.714C137.099 89.036 138.184 89.023 138.861 89.683C139.538 90.343 139.553 91.429 138.892 92.106C134.502 96.61 132.936 103.332 134.901 109.232C135.399 110.728 136.096 112.143 136.972 113.437C137.503 114.221 137.298 115.286 136.514 115.817C136.424 115.88 136.328 115.932 136.23 115.974Z" fill="white"/>
<path d="M142.383 121.686C141.905 121.892 141.338 121.878 140.851 121.599C139.813 121.004 138.822 120.312 137.905 119.542C137.18 118.934 137.085 117.852 137.693 117.128C138.301 116.402 139.382 116.308 140.107 116.916C140.87 117.556 141.694 118.131 142.556 118.626C143.377 119.097 143.661 120.144 143.19 120.965C142.999 121.299 142.712 121.544 142.383 121.686Z" fill="white"/>
<path d="M201.828 85.8161C202.326 85.3461 202.928 84.9981 203.572 84.7671L200.101 82.9211C199.478 82.5901 198.802 83.2651 199.134 83.8881L200.967 87.3341C200.985 87.1701 201.019 87.0081 201.079 86.8551C201.236 86.4551 201.514 86.1121 201.828 85.8161Z" fill="#E36B85"/>
<path d="M212.317 89.4191L203.572 84.7671C202.928 84.9981 202.325 85.3471 201.828 85.8161C201.515 86.1121 201.236 86.4551 201.079 86.8551C201.019 87.0081 200.985 87.1701 200.967 87.3341L205.632 96.1041L212.317 89.4191Z" fill="#F0BF9C"/>
<path d="M205.632 96.1041L244.226 134.698L246.454 132.469L206.544 92.5581C205.438 94.0491 205.023 95.4961 205.632 96.1041Z" fill="#E68799"/>
<path d="M207.575 91.3641C207.184 91.7551 206.839 92.1591 206.542 92.5591L246.452 132.47L248.681 130.241L208.771 90.3301C208.37 90.6281 207.967 90.9721 207.575 91.3641Z" fill="#E36B85"/>
<path d="M212.316 89.4191C211.708 88.8111 210.26 89.2261 208.771 90.3311L248.681 130.242L250.91 128.013L212.316 89.4191Z" fill="#E68799"/>
<path d="M250.911 128.013C251.683 128.785 250.812 130.908 248.966 132.754C247.12 134.6 244.997 135.471 244.225 134.699C243.453 133.927 244.324 131.804 246.17 129.958C248.017 128.111 250.139 127.241 250.911 128.013Z" fill="#F0BF9C"/>
<path d="M248.845 130.079C249.14 130.374 248.807 131.184 248.102 131.889C247.397 132.594 246.587 132.926 246.292 132.632C245.997 132.337 246.33 131.527 247.035 130.822C247.74 130.117 248.55 129.784 248.845 130.079Z" fill="#E36B85"/>
<path d="M341.296 99.0741C335.641 91.7071 326.81 87.1431 317.652 85.6041C308.493 84.0651 299.027 85.3621 290.165 88.1401C284.293 89.9811 278.557 92.5071 273.743 96.3391C268.928 100.171 265.073 105.405 263.663 111.395C262.253 117.385 263.525 124.126 267.651 128.691C271.534 132.986 277.463 134.966 283.245 135.274C289.027 135.582 294.771 134.401 300.451 133.281C301.95 132.985 303.482 132.692 304.997 132.886C306.513 133.08 308.038 133.847 308.754 135.196C309.595 136.779 309.162 138.742 309.674 140.459C310.335 142.676 312.531 144.176 314.803 144.614C317.075 145.052 319.421 144.604 321.66 144.02C331.835 141.365 341.796 135.151 345.642 125.364C349.038 116.721 346.951 106.441 341.296 99.0741ZM324.987 138.278C321.003 140.468 316.523 139.971 314.981 137.166C313.439 134.361 315.418 130.312 319.402 128.121C323.386 125.931 327.866 126.429 329.408 129.233C330.95 132.038 328.971 136.088 324.987 138.278Z" fill="#F0BF6C"/>
<path d="M341.296 97.8341C335.641 90.4671 326.81 85.9031 317.652 84.3641C308.493 82.8251 299.027 84.1221 290.165 86.9001C284.293 88.7411 278.557 91.2671 273.743 95.0991C268.928 98.9311 265.073 104.165 263.663 110.155C262.253 116.145 263.525 122.886 267.651 127.451C271.534 131.746 277.463 133.726 283.245 134.034C289.027 134.342 294.771 133.161 300.451 132.041C301.95 131.745 303.482 131.452 304.997 131.646C306.513 131.84 308.038 132.607 308.754 133.956C309.595 135.539 309.162 137.502 309.674 139.219C310.335 141.436 312.531 142.936 314.803 143.374C317.075 143.812 319.421 143.364 321.66 142.78C331.835 140.125 341.796 133.911 345.642 124.124C349.038 115.48 346.951 105.201 341.296 97.8341ZM324.987 137.038C321.003 139.228 316.523 138.731 314.981 135.926C313.439 133.121 315.418 129.072 319.402 126.881C323.386 124.691 327.866 125.189 329.408 127.993C330.95 130.798 328.971 134.848 324.987 137.038Z" fill="#F5D896"/>
<path d="M308.353 120.69C308.056 118.997 310.526 117.801 310.327 116.093C310.19 114.913 308.835 114.281 307.65 114.197C306.465 114.113 305.221 114.337 304.121 113.886C302.96 113.41 302.022 112.209 300.772 112.315C299.655 112.41 298.943 113.496 298.251 114.378C297.119 115.82 295.614 116.966 293.924 117.675C293.075 118.031 292.156 118.293 291.469 118.905C290.781 119.517 290.422 120.636 290.984 121.365C291.611 122.179 292.994 122.083 293.59 122.919C294.117 123.658 293.749 124.723 294.095 125.563C294.432 126.38 295.385 126.792 296.269 126.797C297.152 126.803 298.002 126.491 298.854 126.257C300.841 125.71 302.939 125.572 304.98 125.854C306.098 126.008 307.24 126.286 308.338 126.028C309.436 125.77 310.465 124.737 310.233 123.633C309.992 122.476 308.558 121.853 308.353 120.69Z" fill="#6C6FC3"/>
<path d="M289.513 113.506C290.25 112.581 291.275 111.939 292.275 111.309C293.275 110.678 294.293 110.02 295.003 109.075C295.713 108.13 296.063 106.824 295.581 105.744C295.012 104.466 293.507 103.896 292.119 103.718C290.731 103.541 289.279 103.617 287.99 103.074C287.113 102.705 286.375 102.074 285.543 101.613C284.711 101.152 283.684 100.867 282.816 101.255C281.563 101.815 281.246 103.427 281.191 104.798C281.137 106.169 281.095 107.734 280.047 108.619C279.011 109.493 277.449 109.296 276.21 109.845C274.656 110.533 273.826 112.524 274.431 114.112C275.036 115.7 276.98 116.635 278.598 116.115C279.575 115.801 280.4 115.044 281.419 114.92C283.377 114.682 285.204 116.855 287.064 116.197C288.228 115.786 288.745 114.471 289.513 113.506Z" fill="#E36B85"/>
<path d="M315.27 105.454C316.022 105.192 316.755 104.827 317.317 104.262C317.879 103.698 318.254 102.912 318.192 102.117C318.109 101.045 317.286 100.19 316.467 99.4931C315.648 98.7961 314.741 98.1021 314.369 97.0931C314.073 96.2871 314.165 95.4001 314.149 94.5421C314.133 93.6841 313.96 92.7451 313.3 92.1961C312.682 91.6821 311.791 91.6461 311.002 91.8001C310.213 91.9541 309.459 92.2701 308.662 92.3751C307.495 92.5291 306.324 92.2221 305.175 91.9721C304.026 91.7211 302.807 91.5271 301.689 91.8941C300.571 92.2611 299.609 93.3621 299.792 94.5241C299.913 95.2981 300.498 95.9431 300.608 96.7191C300.76 97.7841 299.998 98.7431 299.266 99.5321C298.533 100.32 297.729 101.216 297.768 102.292C297.805 103.306 298.636 104.16 299.588 104.512C300.54 104.864 301.591 104.809 302.598 104.686C303.606 104.563 304.62 104.378 305.629 104.487C306.939 104.628 308.142 105.253 309.408 105.618C311.317 106.165 313.395 106.108 315.27 105.454Z" fill="#85C1CD"/>
<path d="M326.138 118.474C326.257 118.482 326.378 118.48 326.501 118.469C328.057 118.321 329.195 117.148 330.59 116.571C332.083 115.953 333.762 116.092 335.378 116.063C336.994 116.034 338.754 115.753 339.841 114.557C340.975 113.308 341.004 110.022 339.915 108.733C339.152 107.83 337.895 107.525 336.97 106.789C336.239 106.207 335.748 105.384 335.273 104.58C334.368 103.047 333.574 100.698 331.388 100.842C330.288 100.915 329.458 101.868 328.925 102.833C328.393 103.798 327.997 104.882 327.174 105.615C326.292 106.4 325.066 106.65 323.894 106.794C322.723 106.938 321.508 107.016 320.455 107.549C319.053 108.259 318.284 110.026 318.844 111.545C319.402 113.058 321.703 112.505 322.679 113.62C323.25 114.272 323.231 115.232 323.48 116.062C323.837 117.258 324.873 118.392 326.138 118.474Z" fill="#F0BF6C"/>
<path d="M360.738 112.141C359.589 110.427 359.73 107.955 361.067 106.383C362.106 105.16 363.683 104.542 365.228 104.111C366.774 103.68 368.382 103.381 369.787 102.606C371.193 101.832 372.396 100.444 372.412 98.8401C372.97 102.748 372.383 106.964 369.903 110.034C368.815 111.381 367.446 112.55 365.814 113.128C364.182 113.707 361.702 113.579 360.738 112.141Z" fill="#6C6FC3"/>
<path d="M362.566 110.315C362.076 109.825 361.289 109.804 360.773 110.266L348.283 121.467L351.414 124.598L362.615 112.108C363.077 111.592 363.056 110.805 362.566 110.315Z" fill="white"/>
<path d="M300.97 171.911C300.381 171.323 300.374 170.371 300.952 169.773L347.24 121.92C348.262 120.863 349.952 120.849 350.992 121.889C352.032 122.929 352.018 124.619 350.961 125.641L303.108 171.929C302.51 172.508 301.558 172.5 300.97 171.911Z" fill="#8C404C"/>
<path d="M118.551 303.405L77.662 307.051C75.482 307.245 73.557 305.636 73.362 303.455L69.716 262.566C69.522 260.386 71.132 258.461 73.312 258.266L114.201 254.62C116.381 254.426 118.306 256.035 118.501 258.216L122.147 299.105C122.342 301.286 120.732 303.211 118.551 303.405Z" fill="#56438C"/>
<path d="M105.317 291.297L109.504 279.916L99.3521 271.426L88.8911 277.56L84.6011 295.77L85.7711 296.748L95.2211 285.448C93.9511 283.902 93.9131 281.627 95.2431 280.036C96.7471 278.237 99.4251 277.999 101.223 279.503C103.022 281.007 103.26 283.685 101.756 285.483C100.426 287.074 98.1801 287.439 96.4331 286.462L86.9831 297.762L88.1521 298.74L105.317 291.297Z" fill="#D1FAF5"/>
<path d="M116.97 272.695L105.136 262.8L98.5147 270.718L110.348 280.613L116.97 272.695Z" fill="#93E3EF"/>
<path d="M81.7211 301.478C81.3301 301.513 80.9491 301.489 80.5851 301.406C79.5871 301.177 78.6681 300.467 78.0601 299.459C77.2001 298.034 77.0821 296.512 77.0821 295.079C77.0811 291.949 78.0831 289.01 79.0631 286.549C79.3571 285.811 79.6651 285.077 79.9741 284.343C80.7331 282.537 81.5181 280.669 82.0451 278.78C82.8671 275.831 82.9181 273.232 82.1951 271.057C81.3651 268.56 79.3211 266.625 77.1091 266.243C76.5651 266.148 76.2011 265.631 76.2951 265.088C76.3891 264.544 76.9051 264.182 77.4501 264.273C80.4131 264.785 83.0201 267.201 84.0921 270.427C84.9431 272.987 84.9021 275.978 83.9701 279.317C83.4101 281.326 82.6001 283.253 81.8171 285.116C81.5141 285.839 81.2101 286.56 80.9211 287.287C80.0111 289.572 79.0811 292.284 79.0821 295.078C79.0821 296.222 79.1661 297.419 79.7731 298.426C80.1031 298.973 80.5631 299.35 81.0341 299.457C81.5221 299.569 82.0391 299.411 82.3861 299.257C82.9181 299.022 83.4251 298.65 83.9161 298.29C84.3601 297.964 84.9851 298.06 85.3121 298.504C85.6391 298.949 85.5421 299.574 85.0981 299.9C84.5481 300.304 83.9241 300.761 83.1931 301.085C82.6971 301.304 82.2021 301.435 81.7211 301.478Z" fill="#93E3EF"/>
<path d="M355.45 215.086L337.408 222.045L345.22 242.297L363.262 235.338L355.45 215.086Z" fill="#31203A"/>
<path d="M367.704 210.359L355.45 215.086L363.262 235.338L375.516 230.611L367.704 210.359Z" fill="#402C49"/>
<path d="M379.958 205.632L367.704 210.359L375.516 230.611L387.77 225.884L379.958 205.632Z" fill="#56438C"/>
<path d="M404.464 196.181L392.21 200.908L400.022 221.16L412.276 216.433L404.464 196.181Z" fill="#6C6FC3"/>
<path d="M392.211 200.905L379.957 205.632L387.769 225.884L400.023 221.157L392.211 200.905Z" fill="#5D64AF"/>
<path d="M353.088 210.866L337.34 222.087L349.936 239.765L365.684 228.544L353.088 210.866Z" fill="#0472AF"/>
<path d="M363.785 203.241L353.088 210.863L365.684 228.54L376.381 220.918L363.785 203.241Z" fill="#0285B2"/>
<path d="M374.481 195.621L363.785 203.242L376.381 220.92L387.077 213.298L374.481 195.621Z" fill="#119DCE"/>
<path d="M395.874 180.376L385.177 187.998L397.773 205.675L408.47 198.053L395.874 180.376Z" fill="#45C7F4"/>
<path d="M385.177 188L374.481 195.622L387.077 213.299L397.773 205.677L385.177 188Z" fill="#27AAE1"/>
<path d="M350.835 208.224L337.371 222.104L352.952 237.218L366.416 223.338L350.835 208.224Z" fill="#2D4F3C"/>
<path d="M359.944 198.779L350.8 208.207L366.38 223.318L375.524 213.891L359.944 198.779Z" fill="#4A705B"/>
<path d="M369.089 189.354L359.945 198.781L375.526 213.893L384.67 204.465L369.089 189.354Z" fill="#638674"/>
<path d="M387.377 170.498L378.233 179.925L393.813 195.037L402.957 185.609L387.377 170.498Z" fill="#DABE6B"/>
<path d="M378.232 179.926L369.088 189.354L384.669 204.465L393.813 195.038L378.232 179.926Z" fill="#B0B369"/>
<path d="M347.955 205.917L337.37 222.1L355.535 233.982L366.12 217.799L347.955 205.917Z" fill="#ED682E"/>
<path d="M355.145 194.927L347.956 205.919L366.121 217.8L373.311 206.809L355.145 194.927Z" fill="#EBA25D"/>
<path d="M362.335 183.936L355.145 194.927L373.311 206.809L380.5 195.817L362.335 183.936Z" fill="#EFB768"/>
<path d="M376.712 161.949L369.522 172.94L387.688 184.822L394.878 173.83L376.712 161.949Z" fill="#F5D896"/>
<path d="M369.523 172.94L362.333 183.932L380.499 195.814L387.688 184.822L369.523 172.94Z" fill="#F0BF6C"/>
<path d="M344.139 203.958L337.354 222.065L357.679 229.682L364.464 211.575L344.139 203.958Z" fill="#A02758"/>
<path d="M348.747 191.659L344.139 203.958L364.464 211.575L369.073 199.276L348.747 191.659Z" fill="#C43368"/>
<path d="M353.355 179.36L348.747 191.659L369.072 199.276L373.681 186.977L353.355 179.36Z" fill="#D34672"/>
<path d="M362.573 154.764L357.964 167.062L378.29 174.679L382.899 162.38L362.573 154.764Z" fill="#E47790"/>
<path d="M357.965 167.062L353.356 179.361L373.681 186.977L378.29 174.679L357.965 167.062Z" fill="#DD5B7D"/>
<path d="M343.197 220.443C342.917 221.191 342.084 221.57 341.336 221.289C340.588 221.009 340.209 220.176 340.489 219.428C340.769 218.68 341.603 218.301 342.35 218.581C343.098 218.862 343.477 219.696 343.197 220.443Z" fill="#31203A"/>
<path d="M409.175 303.304L371.723 287.681C369.4 286.712 368.302 284.043 369.271 281.719L384.894 244.268C385.863 241.945 388.532 240.847 390.856 241.816L428.307 257.439C430.63 258.408 431.728 261.077 430.759 263.401L415.136 300.852C414.168 303.175 411.499 304.273 409.175 303.304Z" fill="#E47790"/>
<path d="M393.148 252.674L418.98 263.45L415.412 272.12L414.176 271.604C415.062 268.339 414.777 265.762 413.319 263.871C412.495 262.82 411.026 261.82 408.912 260.873L399.484 283.475C398.825 285.054 398.664 286.218 399 286.965C399.336 287.713 400.376 288.45 402.122 289.178L401.667 290.268L386.374 283.888L386.828 282.798C388.505 283.497 389.727 283.7 390.498 283.406C391.268 283.112 391.98 282.182 392.633 280.617L402.061 258.016C399.942 257.198 398.198 256.857 396.83 256.993C394.309 257.257 392.276 258.867 390.732 261.824L389.496 261.308L393.148 252.674Z" fill="#F1C59A"/>
<path d="M133.866 370.89C141.774 372.748 150.154 369.168 154.16 361.808L185.592 304.069H170.026L133.866 370.89Z" fill="#5195A8"/>
<path d="M235.256 259.287L194.487 248.416C183.425 245.466 171.79 250.533 166.415 260.64L119.544 348.762C115.742 355.911 118.868 364.783 126.312 367.968L130.831 369.902C131.828 370.329 132.844 370.649 133.867 370.889L170.027 304.069H185.593H235.257V259.287H235.256Z" fill="#6CA8BC"/>
<path d="M364.885 345.797L363.079 340.879L304.786 257.496C298.86 249.019 288.266 245.151 278.272 247.816L235.256 259.286V304.069L294.917 367.759H349.553C360.909 367.76 368.8 356.457 364.885 345.797ZM315.543 296.358L354.957 346.054L310.688 330.631L315.543 296.358Z" fill="#6CA8BC"/>
<path d="M364.126 342.376L363.079 340.879L364.885 345.797C368.799 356.458 360.909 367.76 349.553 367.76H294.917L306.689 380.327H344.352C363.865 380.327 375.306 358.368 364.126 342.376Z" fill="#5195A8"/>
<path d="M315.543 296.358L310.688 330.631L354.957 346.054L315.543 296.358Z" fill="#5195A8"/>
<path d="M276.204 180.131C273.805 175.309 270.557 170.672 265.859 168.036C261.162 165.4 254.153 165.435 250.098 168.98C246.167 162.318 237.993 158.93 230.263 159.244C222.534 159.557 215.245 163.069 208.954 167.572C203.357 171.578 198.307 176.481 194.809 182.408C190.009 190.542 188.356 200.295 189.092 209.711C189.361 213.147 189.936 216.543 190.748 219.887C195.379 217.494 200.895 216.924 200.895 216.924L268.745 211.644C273.421 212.487 277.63 214.322 280.989 216.764C283.345 204.454 281.794 191.366 276.204 180.131Z" fill="#8C404C"/>
<path d="M200.897 216.925C200.897 216.925 195.381 217.495 190.75 219.888C192.164 225.709 194.304 231.372 196.843 236.807C221.988 237.127 248.526 236.803 273.654 235.819C277.256 229.986 279.705 223.49 280.991 216.764C277.632 214.321 273.423 212.487 268.747 211.644L200.897 216.925Z" fill="#422C4F"/>
<path d="M197.909 249.376C203.765 249.376 208.512 244.629 208.512 238.773C208.512 232.917 203.765 228.17 197.909 228.17C192.053 228.17 187.306 232.917 187.306 238.773C187.306 244.629 192.053 249.376 197.909 249.376Z" fill="#EBA588"/>
<path d="M197.909 243.378C195.369 243.378 193.304 241.312 193.304 238.773C193.304 236.234 195.37 234.168 197.909 234.168C200.449 234.168 202.514 236.234 202.514 238.773C202.514 241.312 200.449 243.378 197.909 243.378Z" fill="#DF8D6D"/>
<path d="M273.067 249.376C278.923 249.376 283.67 244.629 283.67 238.773C283.67 232.917 278.923 228.17 273.067 228.17C267.211 228.17 262.464 232.917 262.464 238.773C262.464 244.629 267.211 249.376 273.067 249.376Z" fill="#EBA588"/>
<path d="M273.067 243.378C270.527 243.378 268.462 241.312 268.462 238.773C268.462 236.234 270.528 234.168 273.067 234.168C275.606 234.168 277.672 236.234 277.672 238.773C277.672 241.312 275.607 243.378 273.067 243.378Z" fill="#DF8D6D"/>
<path d="M239.571 192.254C245.706 208.206 260.818 215.823 270.377 218.593C269.99 216.201 269.445 213.878 268.747 211.644C256.711 209.087 245.852 201.231 239.639 190.535C230.67 203.791 216.486 213.362 200.897 216.924C200.547 218.712 200.297 220.546 200.135 222.411C219.175 217.093 235.411 206.036 239.571 192.254Z" fill="#EBA588"/>
<path d="M239.571 192.254C235.411 206.036 219.175 217.093 200.135 222.411C200.007 223.882 199.93 225.371 199.93 226.884C199.93 250.663 215.85 269.939 235.488 269.939C255.126 269.939 271.046 250.662 271.046 226.884C271.046 224.046 270.811 221.276 270.377 218.593C260.819 215.823 245.707 208.206 239.571 192.254Z" fill="#F0BF9C"/>
<path d="M213.488 220.198C217.155 217.457 221.424 217.104 225.387 219.47C227.765 220.89 229.918 217.185 227.549 215.771C222.384 212.687 216.173 212.876 211.325 216.499C209.14 218.131 211.272 221.853 213.488 220.198Z" fill="#8C404C"/>
<path d="M219.436 230.237C221.447 230.237 223.077 228.607 223.077 226.596C223.077 224.585 221.447 222.955 219.436 222.955C217.426 222.955 215.795 224.585 215.795 226.596C215.795 228.607 217.426 230.237 219.436 230.237Z" fill="#422C4F"/>
<path d="M257.494 220.198C253.827 217.457 249.558 217.104 245.595 219.47C243.217 220.89 241.064 217.185 243.433 215.771C248.598 212.687 254.809 212.876 259.657 216.499C261.841 218.131 259.709 221.853 257.494 220.198Z" fill="#8C404C"/>
<path d="M247.903 226.596C247.903 228.607 249.533 230.237 251.545 230.237C253.556 230.237 255.186 228.607 255.186 226.596C255.186 224.585 253.556 222.955 251.545 222.955C249.533 222.955 247.903 224.585 247.903 226.596Z" fill="#422C4F"/>
<path d="M228.755 237.809C230.219 239.963 232.689 241.379 235.491 241.379C238.292 241.379 240.762 239.963 242.227 237.809H228.755Z" fill="#EBA588"/>
<path d="M230.466 252.44C231.835 253.045 233.406 253.031 234.905 252.887C238.771 252.516 242.552 251.345 245.922 249.477C246.714 249.038 247.515 248.53 247.962 247.759C248.413 246.981 248.425 246.087 248.265 245.192C241.948 248.054 235.161 249.872 228.258 250.538C228.782 251.362 229.556 252.038 230.466 252.44Z" fill="white"/>
<path d="M250.475 244.157C249.748 244.521 249.006 244.857 248.265 245.193C248.425 246.088 248.413 246.982 247.962 247.76C247.516 248.53 246.715 249.038 245.922 249.478C242.553 251.346 238.771 252.516 234.905 252.888C233.407 253.032 231.835 253.046 230.466 252.441C229.556 252.039 228.781 251.363 228.257 250.539C227.305 250.631 226.352 250.71 225.396 250.758C226.295 254.413 229.426 257.516 233.013 258.66C236.599 259.804 240.584 259.311 244.022 257.779C246.571 256.643 248.918 254.897 250.35 252.503C251.784 250.107 251.654 246.686 250.475 244.157Z" fill="#8C404C"/>
<path d="M134.242 379.468C145.881 379.468 155.316 372.052 155.316 362.903C155.316 353.755 145.881 346.338 134.242 346.338C122.604 346.338 113.168 353.755 113.168 362.903C113.168 372.052 122.604 379.468 134.242 379.468Z" fill="#F0BF9C"/>
<path d="M148.284 367.358L142.479 364.89C136.245 362.24 129.285 362.24 123.052 364.89L117.247 367.358C113.397 368.995 111.962 373.978 114.297 377.607L116.046 380.326H149.484L151.233 377.607C153.568 373.978 152.134 368.995 148.284 367.358Z" fill="#402C49"/>
<path d="M140.466 374.258C138.117 374.258 136.212 372.353 136.212 370.004V358.121H144.719V370.004C144.719 372.353 142.815 374.258 140.466 374.258Z" fill="#F0BF9C"/>
<path d="M329.763 260.657H153.949C151.358 260.657 149.367 262.95 149.729 265.515L163.936 366.074C164.234 368.188 166.044 369.759 168.178 369.759H315.534C317.669 369.759 319.478 368.188 319.776 366.074L333.983 265.515C334.346 262.95 332.354 260.657 329.763 260.657Z" fill="#56438C"/>
<path d="M317.18 380.327H166.533C165.174 380.327 164.073 379.226 164.073 377.867V375.076C164.073 373.717 165.174 372.616 166.533 372.616H317.18C318.539 372.616 319.64 373.717 319.64 375.076V377.867C319.639 379.225 318.538 380.327 317.18 380.327Z" fill="#402C49"/>
<path d="M173.227 347.584C184.897 354.307 198.341 357.457 211.757 358.635C231.738 360.389 252.459 357.784 270.262 348.547C288.066 339.309 302.637 322.951 307.215 303.423C310.353 290.037 308.237 275.322 301.428 263.514H153.949C151.358 263.514 149.367 265.807 149.729 268.372L159.392 336.765C163.437 341.011 168.154 344.661 173.227 347.584Z" fill="#6C6FC3"/>
<path d="M329.763 263.513H301.428C308.237 275.321 310.353 290.036 307.215 303.422C302.637 322.95 288.066 339.308 270.262 348.546C252.458 357.783 231.737 360.388 211.757 358.634C198.341 357.456 184.897 354.306 173.227 347.583C168.154 344.66 163.437 341.01 159.391 336.764L163.935 368.93C164.234 371.044 166.042 372.615 168.177 372.615H315.533C317.668 372.615 319.477 371.044 319.775 368.93L333.982 268.371C334.346 265.806 332.354 263.513 329.763 263.513Z" fill="#5D64AF"/>
<path d="M256.908 322.691C255.875 329.401 249.191 334.201 241.856 334.201C234.521 334.201 227.837 329.401 226.804 322.691C225.607 314.914 232.264 307.639 241.856 307.639C251.448 307.64 258.105 314.914 256.908 322.691Z" fill="#D1FAF5"/>
<path d="M367.038 380.327H393.142L394.539 371.259H365.641L367.038 380.327Z" fill="#F0BF6C"/>
<path d="M400.624 331.773H359.556L361.273 342.912H398.907L400.624 331.773Z" fill="#F0BF6C"/>
<path d="M365.322 369.188L365.641 371.259H394.539L394.858 369.188H365.322Z" fill="#EBA25D"/>
<path d="M398.906 342.912H361.272L365.321 369.188H394.857L398.906 342.912Z" fill="#F6DCC5"/>
<path d="M403.521 327.132H356.658L356.02 331.773H404.16L403.521 327.132Z" fill="#8C404C"/>
<path d="M398.123 322.491H362.057L360.789 327.132H399.391L398.123 322.491Z" fill="#A64F5A"/>
<path d="M389.566 320.278H370.615V322.492H389.566V320.278Z" fill="#BD6C67"/>
</g>
<defs>
<clipPath id="clip0_88_389">
<rect width="500" height="500" fill="white"/>
</clipPath>
</defs>
</svg>
